<svg id="visual" viewBox="0 0 1920 1080" width="1920" height="1080" xmlns="http://www.w3.org/2000/svg" xmlns:xlink="http://www.w3.org/1999/xlink" version="1.1"><rect x="0" y="0" width="1920" height="1080" fill="#eeeeee"></rect><path d="M0 785L45.7 760.7C91.3 736.3 182.7 687.7 274.2 684.3C365.7 681 457.3 723 548.8 733.2C640.3 743.3 731.7 721.7 823 724.8C914.3 728 1005.7 756 1097 745.3C1188.3 734.7 1279.7 685.3 1371.2 676C1462.7 666.7 1554.3 697.3 1645.8 705.2C1737.3 713 1828.7 698 1874.3 690.5L1920 683L1920 1081L1874.3 1081C1828.7 1081 1737.3 1081 1645.8 1081C1554.3 1081 1462.7 1081 1371.2 1081C1279.7 1081 1188.3 1081 1097 1081C1005.7 1081 914.3 1081 823 1081C731.7 1081 640.3 1081 548.8 1081C457.3 1081 365.7 1081 274.2 1081C182.7 1081 91.3 1081 45.7 1081L0 1081Z" fill="#56ffee"></path><path d="M0 821L45.7 812.5C91.3 804 182.7 787 274.2 785.2C365.7 783.3 457.3 796.7 548.8 808.5C640.3 820.3 731.7 830.7 823 815.5C914.3 800.3 1005.7 759.7 1097 756C1188.3 752.3 1279.7 785.7 1371.2 792C1462.7 798.3 1554.3 777.7 1645.8 781.8C1737.3 786 1828.7 815 1874.3 829.5L1920 844L1920 1081L1874.3 1081C1828.7 1081 1737.3 1081 1645.8 1081C1554.3 1081 1462.7 1081 1371.2 1081C1279.7 1081 1188.3 1081 1097 1081C1005.7 1081 914.3 1081 823 1081C731.7 1081 640.3 1081 548.8 1081C457.3 1081 365.7 1081 274.2 1081C182.7 1081 91.3 1081 45.7 1081L0 1081Z" fill="#45e4d4"></path><path d="M0 855L45.7 865.5C91.3 876 182.7 897 274.2 894.3C365.7 891.7 457.3 865.3 548.8 859.5C640.3 853.7 731.7 868.3 823 875.5C914.3 882.7 1005.7 882.3 1097 887.2C1188.3 892 1279.7 902 1371.2 889.3C1462.7 876.7 1554.3 841.3 1645.8 833.7C1737.3 826 1828.7 846 1874.3 856L1920 866L1920 1081L1874.3 1081C1828.7 1081 1737.3 1081 1645.8 1081C1554.3 1081 1462.7 1081 1371.2 1081C1279.7 1081 1188.3 1081 1097 1081C1005.7 1081 914.3 1081 823 1081C731.7 1081 640.3 1081 548.8 1081C457.3 1081 365.7 1081 274.2 1081C182.7 1081 91.3 1081 45.7 1081L0 1081Z" fill="#33caba"></path><path d="M0 957L45.7 950.3C91.3 943.7 182.7 930.3 274.2 917.5C365.7 904.7 457.3 892.3 548.8 886.3C640.3 880.3 731.7 880.7 823 882.5C914.3 884.3 1005.7 887.7 1097 886.3C1188.3 885 1279.7 879 1371.2 882.2C1462.7 885.3 1554.3 897.7 1645.8 902.2C1737.3 906.7 1828.7 903.3 1874.3 901.7L1920 900L1920 1081L1874.3 1081C1828.7 1081 1737.3 1081 1645.8 1081C1554.3 1081 1462.7 1081 1371.2 1081C1279.7 1081 1188.3 1081 1097 1081C1005.7 1081 914.3 1081 823 1081C731.7 1081 640.3 1081 548.8 1081C457.3 1081 365.7 1081 274.2 1081C182.7 1081 91.3 1081 45.7 1081L0 1081Z" fill="#1fb0a1"></path><path d="M0 971L45.7 978.3C91.3 985.7 182.7 1000.3 274.2 1010.5C365.7 1020.7 457.3 1026.3 548.8 1022.3C640.3 1018.3 731.7 1004.7 823 993.5C914.3 982.3 1005.7 973.7 1097 976C1188.3 978.3 1279.7 991.7 1371.2 989.8C1462.7 988 1554.3 971 1645.8 975.5C1737.3 980 1828.7 1006 1874.3 1019L1920 1032L1920 1081L1874.3 1081C1828.7 1081 1737.3 1081 1645.8 1081C1554.3 1081 1462.7 1081 1371.2 1081C1279.7 1081 1188.3 1081 1097 1081C1005.7 1081 914.3 1081 823 1081C731.7 1081 640.3 1081 548.8 1081C457.3 1081 365.7 1081 274.2 1081C182.7 1081 91.3 1081 45.7 1081L0 1081Z" fill="#009789"></path></svg>